<svg width="129" height="32" viewBox="0 0 129 32" fill="none" xmlns="http://www.w3.org/2000/svg">
<mask id="mask0_197_1571" style="mask-type:alpha" maskUnits="userSpaceOnUse" x="0" y="0" width="129" height="32">
<path d="M128.463 0.751465H0.537109V31.2484H128.463V0.751465Z" fill="white"/>
</mask>
<g mask="url(#mask0_197_1571)">
<mask id="mask1_197_1571" style="mask-type:alpha" maskUnits="userSpaceOnUse" x="0" y="0" width="129" height="32">
<path d="M128.463 0.751465H0.537109V31.2484H128.463V0.751465Z" fill="white"/>
</mask>
<g mask="url(#mask1_197_1571)">
<path d="M36.2067 2.75952H34.2306C34.2295 2.75952 34.2285 2.76063 34.2285 2.76173V29.238C34.2285 29.2393 34.2295 29.2402 34.2306 29.2402H36.2067C36.208 29.2402 36.209 29.2393 36.209 29.238V2.76173C36.209 2.76063 36.208 2.75952 36.2067 2.75952Z" fill="#004E7A"/>
<mask id="mask2_197_1571" style="mask-type:alpha" maskUnits="userSpaceOnUse" x="41" y="4" width="88" height="24">
<path d="M128.463 4.96619H41.3926V27.0334H128.463V4.96619Z" fill="white"/>
</mask>
<g mask="url(#mask2_197_1571)">
<mask id="mask3_197_1571" style="mask-type:alpha" maskUnits="userSpaceOnUse" x="41" y="4" width="88" height="24">
<path d="M128.463 4.96619H41.3926V27.0334H128.463V4.96619Z" fill="white"/>
</mask>
<g mask="url(#mask3_197_1571)">
<mask id="mask4_197_1571" style="mask-type:alpha" maskUnits="userSpaceOnUse" x="41" y="4" width="88" height="24">
<path d="M128.463 4.96619H41.3926V27.0334H128.463V4.96619Z" fill="white"/>
</mask>
<g mask="url(#mask4_197_1571)">
<mask id="mask5_197_1571" style="mask-type:alpha" maskUnits="userSpaceOnUse" x="41" y="4" width="88" height="24">
<path d="M128.463 4.96619H41.3926V27.0334H128.463V4.96619Z" fill="white"/>
</mask>
<g mask="url(#mask5_197_1571)">
<path d="M53.4432 4.96619L52.5241 10.3129C51.6212 10.3129 50.7504 10.4328 49.9119 10.6726C49.0734 10.9189 48.3222 11.285 47.6578 11.7711C47 12.2571 46.4775 12.8631 46.0906 13.5889C45.7035 14.3213 45.51 15.1574 45.51 16.0971V25.8183H41.3984V5.50084H45.0263C45.0908 6.50544 45.1489 7.42249 45.2005 8.252C45.2456 9.07501 45.3004 9.89166 45.365 10.7018C45.7842 9.8268 46.3324 9.03297 47.0097 8.32005C47.6868 7.60712 48.4124 7.00774 49.1863 6.52162C49.9604 6.0355 50.7181 5.65325 51.4599 5.37458C52.2016 5.10227 52.8626 4.96619 53.4432 4.96619ZM70.0834 20.423L73.1791 23.4366C72.2118 24.3116 71.0346 25.0082 69.648 25.5267C68.2612 26.0451 66.8423 26.3044 65.3913 26.3044C63.9078 26.3044 62.5115 26.0193 61.2021 25.4489C59.8993 24.8851 58.7642 24.1236 57.7967 23.1644C56.8292 22.2118 56.0618 21.0873 55.4942 19.7912C54.9331 18.495 54.6525 17.1177 54.6525 15.6596C54.6525 14.2014 54.9331 12.8243 55.4942 11.5281C56.0618 10.2319 56.8292 9.09769 57.7967 8.1256C58.7642 7.1535 59.8831 6.38236 61.1538 5.81201C62.4307 5.24817 63.7949 4.96619 65.2461 4.96619C67.5358 4.96619 69.5255 5.65325 71.2153 7.0271C72.9116 8.40759 74.1305 10.2157 74.8723 12.4516C73.8725 12.8081 72.7277 13.2455 71.4377 13.764C70.1478 14.2825 68.8095 14.8236 67.4229 15.3873C66.0361 15.9577 64.6495 16.5183 63.2627 17.0692C61.8761 17.62 60.5862 18.1223 59.3929 18.5759C59.9412 19.6778 60.7378 20.5591 61.7826 21.2202C62.8338 21.8878 64.0045 22.2215 65.2945 22.2215C66.1652 22.2215 67.0423 22.0594 67.9259 21.7354C68.816 21.4113 69.5351 20.9739 70.0834 20.423ZM69.6963 11.4795C69.3094 10.6693 68.6966 10.0601 67.8581 9.65186C67.0198 9.2501 66.1652 9.04915 65.2945 9.04915C64.3593 9.04915 63.495 9.22742 62.7016 9.58381C61.9148 9.9402 61.2311 10.4166 60.6507 11.0128C60.0703 11.6155 59.6091 12.3058 59.2672 13.0834C58.9319 13.8612 58.7642 14.6551 58.7642 15.4652C58.7642 15.6272 58.7706 15.7406 58.7835 15.8054C58.8029 15.8703 58.8125 15.9188 58.8125 15.9512C59.651 15.6272 60.5604 15.2611 61.5408 14.8527C62.5275 14.4509 63.5047 14.0459 64.4722 13.6376C65.4396 13.2357 66.3748 12.8469 67.2777 12.4711C68.1807 12.1017 68.9868 11.7711 69.6963 11.4795ZM89.7226 7.29927L87.5459 10.2157C87.5136 10.1833 87.3976 10.1023 87.1976 9.9727C87.0105 9.84312 86.7622 9.7134 86.4527 9.58381C86.143 9.45423 85.7883 9.33432 85.3884 9.2241C84.9821 9.10751 84.5726 9.04915 84.1598 9.04915C83.605 9.04915 83.0633 9.17874 82.5344 9.43804C82.0056 9.69722 81.7411 10.1833 81.7411 10.8963C81.7411 11.5118 81.9572 12.0141 82.3893 12.403C82.828 12.7918 83.3696 13.1386 84.0146 13.4432C84.6596 13.7542 85.3594 14.0719 86.114 14.3959C86.8751 14.7199 87.5781 15.1152 88.2231 15.5818C88.8681 16.0549 89.4066 16.6414 89.8386 17.3414C90.2773 18.0348 90.4966 18.9163 90.4966 19.9856C90.4966 21.8002 89.8742 23.2973 88.6294 24.4768C87.3911 25.6627 85.6916 26.2558 83.5309 26.2558C82.2667 26.2558 81.0316 26.0354 79.8256 25.5947C78.613 25.1606 77.6392 24.5222 76.9039 23.6797C77.1297 23.4529 77.3779 23.1612 77.6488 22.8047C77.9262 22.4483 78.2003 22.1081 78.4712 21.784C78.7486 21.46 78.9742 21.191 79.1483 20.9771C79.329 20.7698 79.4322 20.666 79.458 20.666C79.458 20.6984 79.5806 20.7956 79.8256 20.9577C80.0642 21.1197 80.3803 21.2882 80.7737 21.4632C81.1607 21.6446 81.596 21.8067 82.0797 21.9493C82.5634 22.0984 83.0473 22.1728 83.5309 22.1728C84.3049 22.1728 84.9627 21.9785 85.5045 21.5896C86.0592 21.2007 86.3365 20.6822 86.3365 20.0342C86.3365 19.4509 86.1172 18.9875 85.6786 18.644C85.2401 18.3071 84.6983 17.9927 84.0534 17.7011C83.4084 17.4094 82.7021 17.108 81.9347 16.797C81.1607 16.4923 80.4512 16.0971 79.8062 15.611C79.1613 15.125 78.6195 14.5158 78.181 13.7834C77.7424 13.0576 77.5231 12.1113 77.5231 10.9448C77.5231 9.84312 77.7262 8.91957 78.1325 8.17428C78.5324 7.42899 79.0484 6.81979 79.6805 6.34668C80.3125 5.88006 81.0156 5.53984 81.7895 5.3259C82.5634 5.11859 83.3052 5.01486 84.0146 5.01486C84.9499 5.01486 85.9495 5.20931 87.0138 5.59807C88.0779 5.98696 88.9808 6.55398 89.7226 7.29927ZM106.934 4.96619L106.014 10.3129C105.112 10.3129 104.241 10.4328 103.402 10.6726C102.564 10.9189 101.815 11.285 101.158 11.7711C100.493 12.2571 99.9673 12.8631 99.5809 13.5889C99.1945 14.3213 98.9999 15.1574 98.9999 16.0971V25.8183H94.8888V5.50084H98.5168C98.5812 6.50544 98.6393 7.42249 98.6909 8.252C98.7361 9.07501 98.7908 9.89166 98.8554 10.7018C99.2745 9.8268 99.8224 9.03297 100.5 8.32005C101.178 7.60712 101.903 7.00774 102.676 6.52162C103.45 6.0355 104.208 5.65325 104.95 5.37458C105.692 5.10227 106.353 4.96619 106.934 4.96619ZM117.818 27.0335C115.915 23.4042 114.134 19.8138 112.477 16.2624C110.813 12.7174 109.061 9.13019 107.223 5.50084H111.722C112.884 7.80156 113.809 9.68103 114.499 11.1392C115.196 12.5975 115.753 13.8125 116.173 14.7846C116.592 15.7569 116.915 16.5734 117.14 17.2345C117.366 17.902 117.591 18.5759 117.818 19.2565C118.076 18.5759 118.327 17.902 118.572 17.2345C118.811 16.5734 119.133 15.7569 119.54 14.7846C119.94 13.8125 120.488 12.5975 121.185 11.1392C121.875 9.68103 122.799 7.80156 123.961 5.50084H128.459C126.621 9.13019 124.847 12.7174 123.139 16.2624C121.429 19.8138 119.656 23.4042 117.818 27.0335Z" fill="#004E7A"/>
</g>
</g>
</g>
</g>
<mask id="mask6_197_1571" style="mask-type:alpha" maskUnits="userSpaceOnUse" x="0" y="0" width="30" height="32">
<path d="M29.0429 0.751465H0.537109V31.2484H29.0429V0.751465Z" fill="white"/>
</mask>
<g mask="url(#mask6_197_1571)">
<mask id="mask7_197_1571" style="mask-type:alpha" maskUnits="userSpaceOnUse" x="0" y="0" width="30" height="32">
<path d="M29.0429 0.751465H0.537109V31.2484H29.0429V0.751465Z" fill="white"/>
</mask>
<g mask="url(#mask7_197_1571)">
<path d="M7.80469 0.751465H5.9043V2.99811H7.80469V0.751465Z" fill="#004E7A"/>
<path d="M15.7383 0.751465H13.8379V2.99811H15.7383V0.751465Z" fill="#004E7A"/>
<path d="M23.6758 0.751465H21.7754V2.99811H23.6758V0.751465Z" fill="#004E7A"/>
<path d="M0.537109 31.2485H25.4098C27.422 31.2485 29.0429 29.6197 29.0429 27.5979V10.8611H0.537109V31.2485ZM13.0573 18.724L14.7341 13.5008L16.411 18.724H21.3855L17.3611 21.5883L18.9821 26.5308L14.79 23.4979L10.5421 26.5308L12.1631 21.5883L8.1387 18.724H13.0573Z" fill="#004E7A"/>
<path d="M0.537109 8.95123H28.9871V2.99792H23.6771V6.48013H21.7767V2.99792H15.7402V6.48013H13.8398V2.99792H7.80322V6.48013H5.90296V2.99792H0.537109V8.95123Z" fill="#004E7A"/>
</g>
</g>
</g>
</g>
</svg>
