<?xml version="1.0" standalone="no"?>
<!DOCTYPE svg PUBLIC "-//W3C//DTD SVG 20010904//EN"
 "http://www.w3.org/TR/2001/REC-SVG-20010904/DTD/svg10.dtd">
<svg version="1.0" xmlns="http://www.w3.org/2000/svg"
 width="610.000000pt" height="624.000000pt" viewBox="0 0 610.000000 624.000000"
 preserveAspectRatio="xMidYMid meet">

<g transform="translate(0.000000,624.000000) scale(0.100000,-0.100000)"
fill="#000000" stroke="none">
<path d="M2765 6135 c-528 -64 -977 -243 -1417 -565 -118 -86 -429 -390 -532
-520 -349 -440 -566 -956 -642 -1530 -28 -205 -25 -611 5 -825 58 -421 194
-811 401 -1155 694 -1156 2020 -1691 3286 -1326 311 89 633 251 926 466 119
86 430 391 532 520 296 373 500 812 600 1287 48 228 60 357 60 643 0 281 -11
393 -59 629 -95 468 -303 915 -601 1291 -102 129 -413 433 -532 520 -284 208
-603 371 -899 459 -126 37 -298 75 -433 96 -149 23 -538 29 -695 10z m545 -80
c538 -54 971 -221 1430 -552 74 -54 238 -198 324 -286 254 -260 467 -579 606
-907 17 -41 35 -84 40 -95 78 -179 168 -560 189 -802 15 -170 13 -462 -4 -628
-50 -478 -221 -947 -489 -1343 -99 -146 -96 -143 -141 -197 -77 -95 -100 -121
-215 -236 -487 -491 -1097 -778 -1765 -830 -955 -75 -1869 334 -2461 1101 -69
89 -156 215 -189 275 -16 28 -46 82 -68 120 -164 295 -283 658 -338 1035 -18
128 -22 199 -23 405 0 292 20 463 84 718 56 222 64 248 123 397 171 427 443
821 763 1105 44 38 81 72 84 75 3 3 34 28 70 56 438 342 921 533 1500 593 119
12 333 10 480 -4z"/>
<path d="M3030 5930 c0 -5 5 -10 10 -10 6 0 10 -51 10 -134 0 -79 -4 -137 -10
-141 -29 -18 0 -25 99 -25 l109 0 4 35 c5 46 0 50 -24 20 -15 -19 -29 -25 -59
-25 -45 0 -41 -13 -39 145 1 82 5 113 15 121 8 6 12 14 8 17 -10 11 -123 8
-123 -3z"/>
<path d="M2775 5923 c-33 -9 -74 -43 -90 -73 -8 -16 -15 -55 -15 -88 0 -55 3
-63 38 -102 36 -41 42 -44 98 -47 71 -5 118 15 151 66 43 65 25 177 -36 220
-31 22 -108 35 -146 24z m89 -35 c24 -25 39 -79 39 -143 1 -55 -3 -69 -23 -90
-61 -65 -130 -2 -133 122 -3 89 17 123 69 123 19 0 41 -6 48 -12z"/>
<path d="M3392 5907 c-82 -26 -126 -120 -97 -208 19 -56 50 -84 108 -100 82
-22 164 17 187 87 20 59 8 139 -25 174 -42 43 -118 64 -173 47z m98 -27 c27
-14 43 -73 35 -128 -11 -73 -34 -121 -61 -128 -86 -22 -125 61 -89 184 21 71
65 99 115 72z"/>
<path d="M2543 5887 c-41 -9 -59 -27 -29 -27 8 0 18 -5 21 -11 10 -15 36 -131
31 -136 -2 -3 -50 25 -105 62 l-102 67 -49 -13 c-28 -7 -50 -15 -50 -18 0 -3
15 -13 32 -22 28 -14 34 -24 54 -105 28 -108 29 -140 7 -154 -14 -8 -8 -9 27
-4 60 8 64 12 39 32 -14 12 -27 45 -40 97 -10 44 -19 83 -19 87 0 4 57 -31
127 -77 70 -46 130 -82 134 -80 3 3 0 33 -7 67 -50 220 -50 218 -34 228 23 14
8 17 -37 7z"/>
<path d="M3752 5830 c-98 -23 -142 -142 -87 -235 30 -52 77 -76 160 -83 l61
-4 13 43 c7 24 20 49 29 55 14 10 8 14 -38 28 -29 9 -55 16 -57 16 -2 0 -3
-17 -3 -38 0 -54 -19 -76 -57 -68 -22 5 -36 17 -47 41 -19 39 -19 40 -5 105
26 124 133 160 185 64 21 -38 29 -42 38 -18 14 36 5 49 -47 71 -65 27 -103 33
-145 23z"/>
<path d="M2160 5783 c-8 -3 -30 -12 -49 -19 -33 -14 -33 -14 -13 -31 17 -14
57 -103 47 -103 -1 0 -28 -11 -59 -25 l-57 -25 -20 46 c-12 25 -19 55 -16 65
6 24 -7 24 -63 -2 -40 -18 -43 -22 -28 -33 21 -16 98 -211 98 -250 0 -18 4
-26 13 -23 99 39 100 40 84 52 -17 12 -56 90 -57 112 0 6 17 17 38 24 20 6 43
16 49 21 16 13 43 3 43 -15 0 -8 7 -29 16 -47 13 -26 14 -37 5 -51 -14 -24 -5
-24 58 2 51 22 51 22 32 40 -11 10 -22 29 -26 41 -4 13 -22 62 -41 110 -19 47
-31 93 -28 102 6 16 0 19 -26 9z"/>
<path d="M4037 5741 c3 -10 -11 -62 -31 -114 -50 -132 -57 -147 -75 -148 -17
-1 76 -49 96 -49 6 0 9 9 6 20 -5 18 39 159 57 185 4 6 10 22 14 36 3 16 15
29 28 33 22 6 21 8 -14 25 -20 10 -47 21 -61 25 -21 5 -24 3 -20 -13z"/>
<path d="M4196 5627 c-73 -41 -105 -139 -70 -213 29 -61 115 -103 179 -86 44
12 46 35 2 27 -63 -12 -116 33 -117 98 0 79 54 157 110 157 46 0 90 -47 90
-95 0 -44 14 -38 36 13 10 25 11 38 4 40 -6 2 -24 15 -39 28 -37 31 -92 54
-128 54 -15 0 -46 -10 -67 -23z"/>
<path d="M1810 5622 c0 -4 -22 -15 -49 -25 -127 -45 -160 -181 -66 -274 39
-40 46 -43 97 -43 42 0 62 6 88 25 41 30 70 72 70 103 0 30 -18 28 -26 -3 -9
-35 -59 -75 -95 -75 -55 0 -129 98 -129 171 0 27 38 67 70 74 22 5 40 1 65
-14 40 -24 45 -13 15 37 -18 29 -40 43 -40 24z"/>
<path d="M2755 5505 c-288 -40 -632 -160 -843 -292 -29 -18 -54 -33 -56 -33
-5 0 -130 -83 -136 -90 -3 -3 -23 -19 -45 -35 -59 -43 -164 -133 -210 -181
-105 -108 -173 -183 -200 -219 -16 -22 -33 -42 -36 -45 -4 -3 -44 -61 -90
-130 -128 -191 -217 -379 -309 -650 -20 -59 -50 -194 -71 -315 -19 -111 -23
-168 -23 -395 0 -232 2 -281 22 -395 26 -146 61 -292 93 -386 295 -864 1024
-1485 1882 -1604 455 -64 899 5 1307 201 167 80 252 133 400 245 396 301 697
736 843 1219 71 234 101 446 101 715 -1 333 -46 591 -157 885 -59 157 -247
507 -278 518 -5 2 -9 8 -9 13 0 33 -291 354 -421 464 -325 274 -756 459 -1199
514 -112 14 -452 12 -565 -4z m670 -64 c585 -107 1066 -402 1423 -871 283
-372 435 -769 478 -1255 49 -543 -90 -1078 -400 -1545 -27 -41 -52 -77 -55
-80 -3 -3 -26 -32 -51 -65 -67 -91 -304 -323 -405 -398 -49 -37 -94 -70 -100
-75 -54 -43 -286 -168 -400 -217 -157 -67 -378 -127 -560 -152 -138 -19 -415
-21 -560 -4 -142 16 -370 72 -510 123 -201 75 -454 218 -618 349 -134 108
-343 325 -417 434 -18 28 -36 52 -39 55 -11 10 -59 85 -114 180 -47 81 -71
130 -137 275 -46 100 -122 361 -141 480 -61 395 -51 705 35 1040 86 337 238
640 463 920 91 113 255 276 353 350 36 27 67 52 70 56 3 3 61 41 130 84 124
78 341 188 396 201 16 4 34 10 39 14 6 4 19 10 30 13 11 3 61 17 110 32 98 28
199 49 340 70 140 22 488 14 640 -14z"/>
<path d="M2850 5393 c-14 -2 -62 -8 -107 -14 l-83 -11 0 -143 c0 -151 -7 -175
-49 -175 -24 0 -257 -78 -303 -101 l-36 -19 -38 53 c-21 28 -55 77 -76 107
-71 103 -59 97 -125 60 -32 -18 -78 -44 -103 -58 -40 -22 -207 -137 -220 -152
-3 -3 -25 -22 -50 -42 -25 -20 -83 -73 -130 -117 l-84 -80 20 -23 c10 -13 29
-36 40 -53 11 -16 42 -60 67 -97 26 -37 47 -72 47 -78 0 -6 -24 -41 -53 -78
-66 -85 -157 -217 -157 -230 0 -5 -6 -14 -13 -21 -10 -8 -46 1 -143 34 -71 25
-136 45 -144 45 -23 0 -127 -236 -171 -389 -40 -140 -79 -318 -79 -369 0 -15
9 -19 165 -72 l120 -41 0 -209 0 -209 -128 -42 c-71 -24 -136 -48 -145 -55
-14 -10 -14 -19 -3 -85 25 -142 55 -255 108 -404 39 -112 119 -285 130 -285 4
0 70 20 146 45 129 43 157 47 157 24 0 -14 84 -141 152 -230 32 -42 58 -81 58
-88 0 -6 -36 -63 -80 -126 -44 -63 -80 -118 -80 -123 0 -10 109 -115 200 -193
118 -100 247 -187 368 -248 71 -36 73 -36 118 32 94 137 128 178 143 171 98
-43 241 -91 336 -113 l30 -7 3 -151 c3 -175 -14 -155 145 -174 121 -14 474 -7
575 12 l72 13 0 148 c0 110 3 150 13 152 6 2 32 9 57 16 100 27 208 64 253 86
46 22 50 22 67 6 21 -20 114 -144 138 -184 9 -16 22 -28 30 -28 29 0 303 171
377 235 88 76 184 165 218 202 l38 41 -55 79 c-31 43 -68 97 -82 120 l-26 43
42 47 c45 51 180 249 180 264 0 18 57 8 154 -26 55 -19 108 -35 118 -35 19 0
59 76 117 223 72 182 154 533 128 549 -6 4 -61 24 -122 44 -60 20 -114 40
-119 45 -5 4 -9 100 -10 213 -1 174 1 206 14 210 133 45 241 84 246 88 8 9
-34 221 -67 338 -44 153 -66 213 -120 328 -37 79 -52 102 -67 102 -11 0 -66
-16 -122 -36 -56 -19 -112 -34 -123 -32 -11 2 -29 19 -40 38 -26 47 -139 207
-175 249 -26 29 -28 36 -18 56 16 30 87 135 107 157 9 10 22 30 29 44 14 25
12 28 -70 108 -121 118 -202 183 -331 268 -96 64 -208 128 -222 128 -4 0 -38
-49 -123 -174 -43 -63 -41 -63 -176 -13 -68 24 -148 50 -178 58 -30 7 -61 19
-67 28 -9 10 -13 58 -13 156 l0 142 -142 17 c-127 14 -389 20 -458 9z m385
-53 c50 -5 107 -13 128 -16 l38 -6 -2 -138 c-3 -155 0 -164 59 -175 47 -8 168
-43 207 -60 171 -72 198 -77 219 -40 6 11 29 44 52 75 22 30 49 70 59 88 11
17 24 32 31 32 35 0 267 -158 393 -268 124 -109 151 -135 151 -149 0 -14 -114
-178 -130 -188 -23 -14 -10 -68 27 -113 60 -74 105 -136 165 -231 43 -68 63
-91 79 -91 11 0 70 16 131 36 93 32 111 35 123 23 23 -25 96 -206 136 -339 22
-71 69 -285 69 -310 0 -11 -33 -26 -117 -54 -65 -21 -122 -44 -128 -51 -15
-19 -12 -470 4 -489 7 -8 64 -31 127 -52 63 -20 114 -42 114 -48 0 -21 -30
-166 -49 -238 -36 -138 -140 -410 -162 -424 -5 -3 -65 14 -134 37 l-125 42
-21 -24 c-12 -13 -28 -37 -36 -54 -28 -53 -86 -138 -150 -218 -66 -83 -77
-116 -48 -152 39 -49 125 -176 125 -184 0 -12 -127 -130 -218 -203 -76 -61
-193 -139 -284 -192 l-47 -26 -45 62 c-24 35 -54 75 -65 90 -12 14 -21 33 -21
42 0 9 -11 21 -25 28 -20 9 -38 5 -117 -29 -51 -22 -138 -52 -193 -67 -163
-45 -150 -28 -153 -193 -2 -117 -5 -142 -18 -147 -65 -25 -489 -31 -631 -10
l-43 7 0 143 c0 165 2 161 -101 183 -53 11 -132 38 -271 91 -33 13 -67 20 -81
16 -14 -3 -39 -29 -62 -63 -73 -107 -109 -153 -121 -153 -31 0 -246 138 -348
222 -111 92 -196 173 -196 185 0 11 105 168 136 204 26 29 16 65 -36 127 -27
32 -79 104 -114 158 -96 145 -95 144 -121 144 -20 0 -171 -46 -247 -75 -13 -5
-23 6 -46 52 -31 61 -101 247 -122 323 -7 25 -16 56 -21 70 -12 36 -39 178
-39 204 0 27 9 32 150 76 58 18 110 36 115 41 6 4 10 96 9 244 -1 187 -4 240
-15 250 -8 7 -63 30 -124 50 -158 53 -145 41 -129 132 30 164 142 502 193 582
7 11 30 6 129 -28 66 -22 132 -41 145 -41 21 0 37 18 92 106 58 90 144 208
166 224 10 8 29 48 29 62 0 8 -36 65 -80 128 l-81 114 38 39 c90 93 340 287
413 320 8 4 33 18 55 32 22 13 43 24 47 25 4 0 44 -52 88 -115 92 -130 94
-131 182 -90 45 21 126 48 323 108 l40 12 5 150 5 150 95 11 c124 15 312 16
425 4z"/>
<path d="M2815 4760 c-341 -48 -645 -201 -896 -450 -278 -277 -431 -603 -476
-1017 -15 -132 -15 -169 -4 -290 45 -482 252 -875 620 -1173 164 -133 412
-250 641 -301 119 -27 400 -37 523 -19 351 50 645 197 898 449 141 141 231
267 316 441 236 481 221 1074 -39 1547 -222 403 -611 694 -1063 793 -111 24
-409 36 -520 20z m419 -56 c404 -62 747 -267 997 -595 108 -142 203 -328 253
-496 53 -176 82 -408 71 -557 -14 -175 -61 -401 -105 -501 -5 -11 -21 -49 -36
-85 -16 -36 -41 -87 -58 -115 -16 -27 -37 -64 -47 -82 -38 -66 -133 -186 -212
-266 -294 -299 -671 -457 -1086 -457 -400 1 -775 161 -1066 454 -44 45 -94 99
-110 121 -17 22 -35 46 -42 53 -14 15 -98 155 -140 232 -63 118 -123 307 -149
469 -19 121 -19 393 1 515 72 449 326 840 705 1088 181 118 449 212 655 231
105 10 277 5 369 -9z"/>
<path d="M2485 4440 c-10 -11 -51 -40 -91 -65 -62 -39 -80 -57 -110 -108 -20
-34 -50 -77 -67 -94 l-31 -33 50 25 c27 13 64 30 83 36 53 20 101 77 165 197
30 57 31 75 1 42z"/>
<path d="M3601 4379 c49 -93 123 -175 166 -184 45 -10 89 -35 120 -69 24 -26
24 -28 3 -10 -56 48 -118 60 -246 49 l-86 -7 65 -23 c36 -12 78 -31 94 -42 72
-52 113 -65 174 -58 33 4 59 10 59 14 0 5 -9 16 -20 26 -11 10 -18 20 -15 23
2 3 -18 30 -46 60 -27 30 -59 73 -71 96 -26 53 -64 93 -109 116 -20 11 -57 35
-84 55 l-47 37 43 -83z"/>
<path d="M2132 4298 c-6 -15 -24 -46 -39 -70 -50 -79 -55 -92 -61 -168 -5 -72
-4 -74 13 -60 14 11 17 12 10 1 -4 -7 6 -3 24 10 34 25 41 42 14 32 -15 -6
-14 -2 4 29 24 41 56 184 51 226 l-4 27 -12 -27z"/>
<path d="M3931 4286 c-1 -58 20 -167 41 -204 22 -40 22 -43 1 -35 -10 3 -1
-11 19 -31 20 -20 51 -59 68 -86 40 -62 50 -66 14 -5 -20 35 -27 63 -31 127
-5 77 -9 89 -53 163 -26 44 -50 87 -53 95 -3 8 -6 -2 -6 -24z m103 -292 c3 -8
2 -12 -4 -9 -6 3 -10 10 -10 16 0 14 7 11 14 -7z"/>
<path d="M2256 4155 c-22 -8 -62 -36 -89 -64 l-50 -49 66 -7 65 -7 99 56 c54
30 114 59 133 63 l35 7 -50 7 c-82 12 -167 9 -209 -6z"/>
<path d="M2159 4113 c-13 -16 -12 -17 4 -4 9 7 17 15 17 17 0 8 -8 3 -21 -13z"/>
<path d="M1841 3984 c0 -17 -8 -71 -17 -120 -14 -83 -14 -94 2 -163 l17 -75
18 55 c23 69 22 174 -1 264 -13 51 -18 62 -19 39z"/>
<path d="M4217 3955 c-28 -149 -28 -158 -12 -232 9 -40 20 -73 25 -73 4 0 13
23 20 51 13 54 8 144 -13 239 l-13 55 -7 -40z"/>
<path d="M2015 3948 l-16 -33 21 24 c11 13 20 27 20 32 0 18 -10 8 -25 -23z"/>
<path d="M1986 3893 c-6 -14 -5 -15 5 -6 7 7 10 15 7 18 -3 3 -9 -2 -12 -12z"/>
<path d="M2083 3876 c-28 -7 -63 -20 -77 -30 -27 -17 -68 -75 -80 -113 -7 -21
-4 -23 35 -23 39 0 47 5 114 73 39 40 83 80 96 89 l24 17 -30 0 c-16 -1 -53
-6 -82 -13z"/>
<path d="M3905 3872 c17 -11 61 -51 99 -91 64 -67 71 -71 112 -71 l44 0 -25
48 c-13 26 -31 55 -38 64 -22 27 -97 57 -163 64 l-59 6 30 -20z"/>
<path d="M1945 3830 c-9 -16 -13 -30 -11 -30 3 0 12 14 21 30 9 17 13 30 11
30 -3 0 -12 -13 -21 -30z"/>
<path d="M4130 3810 c6 -11 13 -20 16 -20 2 0 0 9 -6 20 -6 11 -13 20 -16 20
-2 0 0 -9 6 -20z"/>
<path d="M1916 3775 c-9 -26 -7 -32 5 -12 6 10 9 21 6 23 -2 3 -7 -2 -11 -11z"/>
<path d="M4170 3710 c0 -5 9 -24 20 -42 24 -39 26 -34 5 16 -15 35 -25 46 -25
26z"/>
<path d="M1882 3693 c-17 -33 -52 -143 -51 -161 0 -9 11 15 24 55 13 39 31 83
40 97 10 15 13 26 7 26 -6 0 -15 -8 -20 -17z"/>
<path d="M4217 3605 c3 -16 12 -48 19 -70 l14 -40 -6 40 c-3 22 -12 53 -19 70
l-14 30 6 -30z"/>
<path d="M1930 3548 c-30 -18 -64 -48 -76 -66 -21 -30 -51 -158 -43 -179 3 -6
16 -6 35 -1 29 7 35 16 73 120 23 62 51 122 63 135 30 32 12 29 -52 -9z"/>
<path d="M4098 3553 c11 -16 34 -68 52 -118 40 -113 54 -135 84 -135 41 0 56
-58 56 -217 0 -75 2 -134 4 -132 17 17 -2 421 -20 438 -3 3 -3 -21 1 -54 10
-84 -2 -65 -16 25 -13 85 -25 114 -66 151 -29 27 -95 69 -107 69 -4 0 1 -12
12 -27z"/>
<path d="M1630 3525 c0 -3 6 -19 14 -34 8 -15 22 -58 30 -95 19 -78 39 -121
62 -130 15 -6 16 2 12 73 -4 67 -9 85 -31 115 -26 33 -87 84 -87 71z"/>
<path d="M4398 3497 c-49 -43 -66 -82 -74 -167 -7 -72 -7 -72 14 -61 23 12 52
60 52 84 0 8 11 49 25 92 14 43 24 79 23 81 -2 1 -20 -12 -40 -29z"/>
<path d="M1814 3476 c-3 -21 -4 -39 -1 -42 2 -3 8 11 11 32 4 20 5 38 2 41 -2
3 -8 -11 -12 -31z"/>
<path d="M4252 3475 c0 -11 4 -33 8 -50 7 -27 8 -27 8 -5 0 14 -4 36 -8 50 -6
20 -8 21 -8 5z"/>
<path d="M2190 3443 c0 -3 11 -21 25 -39 29 -39 31 -44 8 -44 -14 0 -13 -4 6
-24 13 -14 37 -30 53 -37 28 -11 29 -14 13 -25 -20 -15 -17 -19 47 -67 43 -32
154 -86 183 -89 11 -1 -92 -5 -230 -8 l-250 -5 -4 -35 c-5 -55 19 -197 50
-292 112 -346 374 -598 714 -690 90 -24 275 -33 387 -20 206 26 412 128 567
282 171 170 286 419 307 667 l6 81 -43 7 c-24 3 -151 5 -282 3 l-237 -3 0 29
c0 29 58 95 124 141 16 11 37 34 48 50 17 28 18 29 18 7 0 -22 3 -23 43 -17
90 15 90 68 -2 73 -43 3 -51 0 -51 -15 -1 -14 -4 -12 -15 8 -23 42 -89 47
-162 12 -48 -21 -68 -44 -102 -113 -36 -71 -91 -164 -102 -170 -4 -3 -56 -4
-116 -3 -59 2 -111 3 -114 3 -7 0 -38 63 -74 148 -10 24 -35 56 -55 72 -61 48
-129 60 -344 60 -199 0 -292 11 -364 41 -48 21 -52 22 -52 12z m1430 -83 c0
-7 -45 -30 -60 -30 -16 0 -11 19 11 41 16 16 23 18 35 8 8 -6 14 -15 14 -19z
m-723 -57 c28 -14 47 -36 81 -98 24 -44 44 -84 45 -89 3 -15 -275 -7 -288 9
-6 7 -42 15 -85 18 -87 6 -168 35 -212 76 l-31 29 37 16 c147 61 370 81 453
39z m-123 -439 c21 -20 21 -86 0 -130 -28 -58 -96 -82 -133 -45 -18 18 -19 18
-25 -22 -10 -58 -49 -107 -86 -107 -23 0 -35 8 -56 40 -34 51 -27 96 22 145
37 37 73 45 94 20 16 -19 30 -19 30 0 0 29 31 76 63 95 39 24 70 25 91 4z
m160 -116 c32 -45 10 -133 -41 -164 -15 -10 -30 -19 -32 -20 -1 -2 6 -13 18
-25 18 -20 27 -57 22 -96 -3 -20 17 -15 29 7 6 11 18 20 26 20 9 0 13 6 10 13
-28 69 -29 85 -5 134 27 54 63 79 100 70 65 -17 63 -152 -4 -203 -25 -19 -25
-20 -13 -69 12 -45 14 -47 21 -25 19 64 83 90 120 50 26 -29 32 -118 11 -158
-15 -29 -21 -32 -65 -32 -55 0 -67 10 -79 66 -8 37 -9 38 -16 14 -16 -49 -36
-62 -86 -55 -54 8 -70 20 -70 51 0 21 -2 22 -30 12 -63 -21 -103 11 -102 82 1
41 35 115 61 130 14 8 14 11 -6 25 -42 30 -38 102 10 154 42 45 97 53 121 19z
m317 -109 c32 -34 44 -82 35 -134 -6 -30 -4 -35 12 -35 62 0 127 -126 93 -179
-14 -22 -81 -42 -103 -30 -33 17 -51 67 -46 129 4 56 4 57 -24 57 -58 0 -94
69 -78 152 14 75 62 92 111 40z m-510 -16 c32 -38 5 -146 -46 -179 -46 -30
-115 9 -115 64 2 86 117 169 161 115z"/>
<path d="M1797 3393 c-20 -98 -29 -277 -20 -393 l10 -125 -1 165 c-1 156 2
202 19 328 8 54 2 73 -8 25z"/>
<path d="M1877 3067 c-63 -77 -77 -134 -61 -250 6 -43 8 -45 30 -35 30 14 41
52 47 168 3 52 10 108 16 124 17 43 8 41 -32 -7z"/>
<path d="M4165 3083 c4 -10 12 -76 19 -146 10 -122 12 -130 38 -148 l26 -19 7
29 c3 16 6 60 7 99 0 58 -4 77 -26 113 -43 72 -91 120 -71 72z"/>
<path d="M1647 2998 c7 -8 33 -63 57 -123 41 -99 77 -157 90 -144 3 3 -6 42
-20 87 -25 82 -88 178 -124 190 -12 4 -13 2 -3 -10z"/>
<path d="M4382 2966 c-54 -58 -53 -56 -102 -208 -5 -17 -5 -28 0 -28 19 0 51
46 81 119 29 71 57 136 66 154 10 18 -7 4 -45 -37z"/>
<path d="M4283 2875 c0 -22 2 -30 4 -17 2 12 2 30 0 40 -3 9 -5 -1 -4 -23z"/>
<path d="M1792 2845 c0 -16 3 -39 8 -50 l9 -20 -1 20 c0 11 -4 34 -8 50 l-8
30 0 -30z"/>
<path d="M4272 2810 c0 -14 2 -19 5 -12 2 6 2 18 0 25 -3 6 -5 1 -5 -13z"/>
<path d="M4255 2743 c-15 -89 -15 -99 -6 -78 10 25 24 115 17 115 -3 0 -8 -17
-11 -37z"/>
<path d="M1809 2745 c-3 -11 0 -33 7 -50 14 -33 17 -13 5 40 -6 25 -8 27 -12
10z"/>
<path d="M4097 2648 c-3 -35 -24 -119 -47 -187 -30 -90 -40 -132 -36 -155 4
-17 8 -39 9 -48 1 -10 2 -18 3 -18 1 0 18 28 38 61 45 75 76 165 76 218 0 36
-26 180 -34 188 -2 2 -6 -25 -9 -59z"/>
<path d="M1950 2627 c-23 -126 -3 -229 68 -342 23 -35 26 -37 33 -20 14 37 9
90 -17 170 -15 44 -36 121 -48 170 l-22 90 -14 -68z"/>
<path d="M1831 2650 c0 -8 4 -24 9 -35 5 -13 9 -14 9 -5 0 8 -4 24 -9 35 -5
13 -9 14 -9 5z"/>
<path d="M1740 2514 c0 -4 7 -14 16 -23 8 -9 37 -47 64 -84 60 -84 98 -128
130 -150 34 -24 45 -21 47 10 0 15 -2 21 -7 14 -5 -8 -23 9 -54 53 -26 36 -67
85 -92 108 -50 47 -104 84 -104 72z"/>
<path d="M4295 2496 c-57 -40 -86 -71 -156 -163 -38 -50 -69 -94 -69 -97 0 -8
52 15 74 33 23 20 190 241 185 245 -2 2 -18 -6 -34 -18z"/>
<path d="M2130 2408 c0 -9 9 -59 19 -112 22 -110 66 -200 123 -254 36 -35 198
-136 205 -128 2 2 -3 16 -12 32 -8 16 -15 36 -15 44 0 26 -36 71 -133 170
-109 112 -143 156 -168 219 -10 25 -18 39 -19 29z"/>
<path d="M3911 2347 c-15 -31 -70 -98 -143 -173 -110 -115 -148 -168 -148
-210 0 -10 -8 -26 -17 -37 -12 -14 9 -6 64 22 99 52 179 126 214 201 31 64 62
185 57 221 -3 22 -6 19 -27 -24z"/>
<path d="M4032 2218 c-7 -7 -12 -8 -12 -2 0 5 -7 -4 -15 -20 -8 -15 -15 -31
-15 -34 0 -9 41 32 51 50 11 21 8 23 -9 6z"/>
<path d="M2040 2213 c0 -5 12 -20 26 -34 24 -21 26 -22 16 -3 -13 25 -42 50
-42 37z"/>
<path d="M2097 2139 c7 -7 15 -10 18 -7 3 3 -2 9 -12 12 -14 6 -15 5 -6 -5z"/>
<path d="M3949 2123 l-24 -28 28 24 c25 23 32 31 24 31 -2 0 -14 -12 -28 -27z"/>
<path d="M1996 2069 c8 -14 179 -126 235 -155 67 -33 118 -43 153 -29 l28 12
-38 16 c-22 9 -77 37 -124 62 -102 55 -268 116 -254 94z"/>
<path d="M4010 2056 c-41 -13 -136 -55 -211 -93 l-135 -69 34 -11 c40 -12 82
-1 167 44 76 40 250 160 223 152 -2 0 -37 -11 -78 -23z"/>
<path d="M3705 1940 c-3 -6 1 -7 9 -4 18 7 21 14 7 14 -6 0 -13 -4 -16 -10z"/>
<path d="M2850 1931 c-21 -13 -16 -171 6 -171 11 0 14 19 14 90 0 50 -1 90 -2
90 -2 0 -10 -5 -18 -9z"/>
<path d="M2942 1928 c-20 -20 -15 -66 9 -78 11 -7 27 -9 35 -6 20 8 18 -33 -3
-56 -9 -10 -12 -18 -6 -18 16 0 52 44 64 79 10 28 9 36 -8 59 -29 39 -44 40
-30 3 13 -36 0 -58 -29 -47 -13 5 -15 14 -11 41 6 36 -1 43 -21 23z"/>
<path d="M3076 1924 c-34 -33 -5 -91 40 -80 30 8 32 -12 3 -48 -16 -21 -17
-26 -5 -26 19 0 55 50 61 87 7 35 -14 77 -40 81 -16 3 -18 1 -7 -9 6 -7 12
-26 12 -42 0 -24 -4 -28 -22 -25 -26 3 -36 41 -18 64 17 20 -4 18 -24 -2z"/>
<path d="M3243 1926 c9 -7 17 -23 17 -34 0 -12 -8 -25 -17 -31 -17 -9 -17 -10
0 -16 26 -11 23 -63 -5 -75 -23 -9 -23 -9 3 -9 27 -1 59 26 59 49 0 7 -7 22
-16 32 -14 14 -14 20 -4 33 7 8 10 25 6 40 -5 19 -13 25 -34 25 -25 -1 -25 -2
-9 -14z"/>
<path d="M3610 1903 c-25 -9 -59 -21 -76 -29 -17 -7 -60 -18 -95 -24 -77 -14
-93 -19 -87 -25 5 -5 60 7 227 49 29 8 60 21 69 30 9 9 14 15 12 15 -3 -1 -25
-8 -50 -16z"/>
<path d="M2436 1901 c12 -13 154 -54 162 -46 3 3 -1 5 -9 5 -8 0 -25 6 -39 13
-14 8 -39 16 -55 20 -17 3 -39 9 -50 13 -15 5 -17 4 -9 -5z"/>
<path d="M2655 1835 c28 -7 66 -13 85 -13 23 0 11 5 -35 14 -88 16 -116 16
-50 -1z"/>
<path d="M4520 5409 c-41 -33 -88 -71 -105 -84 -16 -13 -42 -27 -57 -30 -35
-9 -35 -16 1 -38 36 -21 42 -21 35 -2 -6 16 42 64 64 65 8 0 26 -9 42 -20 25
-18 27 -23 20 -62 -5 -23 -16 -47 -25 -54 -16 -12 -12 -16 31 -44 l49 -31 6
48 c3 26 18 102 33 168 25 113 26 121 9 132 -9 7 -19 13 -22 12 -3 0 -40 -28
-81 -60z m25 -51 c-10 -45 -19 -52 -39 -29 -16 18 -16 20 10 40 35 28 37 27
29 -11z"/>
<path d="M1443 5397 c-40 -29 -73 -55 -73 -59 0 -4 8 -9 18 -12 9 -3 28 -23
42 -43 14 -21 44 -64 67 -97 24 -32 43 -69 43 -83 0 -24 1 -24 58 16 116 82
117 84 103 120 -17 40 -28 40 -28 0 0 -21 -7 -37 -24 -50 -35 -27 -45 -24 -80
23 l-30 43 21 17 c12 10 33 18 47 18 24 0 24 0 6 30 -18 32 -33 39 -33 17 0
-20 -49 -63 -58 -51 -5 5 -21 26 -36 48 l-29 38 29 24 c33 27 38 28 65 14 22
-12 24 -3 5 23 -20 26 -34 21 -113 -36z"/>
<path d="M4791 5308 c3 -25 -1 -35 -23 -60 -13 -13 -43 -48 -68 -78 -62 -73
-69 -80 -88 -80 -16 0 -4 -12 89 -95 70 -61 67 -60 94 -35 29 27 33 45 7 31
-20 -11 -69 7 -91 32 -14 18 -6 37 35 82 11 11 41 46 67 77 31 37 53 55 62 51
29 -10 15 15 -27 51 -45 38 -60 44 -57 24z"/>
<path d="M1215 5206 c-99 -94 -100 -94 -81 -115 25 -27 34 -27 29 2 -3 15 4
30 20 45 l24 23 78 -86 c47 -51 80 -97 84 -116 l6 -30 50 45 c40 37 46 45 29
46 -12 0 -40 23 -71 58 -122 139 -115 129 -101 152 14 23 50 36 69 24 7 -4 4
5 -7 19 -10 15 -21 26 -24 26 -3 0 -50 -42 -105 -93z"/>
<path d="M5031 4933 c-38 -19 -78 -73 -87 -120 -14 -69 52 -166 122 -179 53
-10 63 10 14 25 -74 22 -95 112 -41 175 26 30 89 66 116 66 64 0 105 -104 62
-157 -18 -24 9 -14 43 15 l32 28 -33 55 c-40 65 -46 72 -86 93 -41 20 -99 20
-142 -1z"/>
<path d="M933 4898 c-42 -52 -45 -107 -8 -143 29 -30 66 -32 142 -8 48 15 55
15 69 1 37 -37 -16 -96 -75 -85 -39 8 -38 -1 0 -32 l30 -23 27 27 c66 67 82
134 40 172 -36 32 -52 33 -128 12 -80 -23 -100 -20 -100 14 0 30 31 59 62 57
13 -1 27 -2 32 -1 9 1 -45 51 -54 50 -3 0 -20 -18 -37 -41z"/>
<path d="M794 4681 c-46 -28 -77 -77 -82 -131 -7 -73 12 -117 66 -151 99 -62
203 -18 242 104 21 66 -15 143 -84 177 -53 25 -102 26 -142 1z m84 -60 c57
-30 112 -89 112 -120 0 -38 -34 -71 -73 -71 -41 0 -129 50 -156 89 -26 37 -27
61 0 95 25 32 64 34 117 7z"/>
<path d="M5240 4674 c-65 -28 -110 -90 -110 -150 0 -37 39 -111 72 -139 57
-48 155 -35 212 29 102 115 -36 322 -174 260z m133 -55 c12 -7 25 -17 29 -23
15 -21 8 -74 -13 -100 -27 -34 -116 -86 -148 -86 -59 0 -92 79 -53 126 25 31
87 74 119 84 39 12 41 11 66 -1z"/>
<path d="M5525 4388 c-8 -20 -207 -118 -241 -118 -20 0 -22 -3 -15 -22 26 -68
82 -178 90 -178 6 0 22 5 37 12 l26 12 -33 11 c-35 12 -65 55 -55 80 6 17 191
107 223 109 28 1 28 10 -2 66 -18 35 -25 41 -30 28z"/>
<path d="M592 4337 c-21 -23 -82 -147 -82 -168 0 -6 7 -8 15 -5 20 7 230 -97
243 -121 8 -14 13 -10 31 25 22 43 28 77 12 67 -15 -8 -111 37 -111 52 0 20
44 33 109 33 56 0 58 1 74 35 24 51 22 58 -15 49 -18 -4 -59 -10 -90 -14 -49
-5 -58 -4 -58 10 0 8 -7 26 -16 38 -21 31 -83 31 -112 -1z m76 -72 c18 -23 20
-59 3 -69 -9 -6 -94 38 -98 51 -6 17 26 43 52 43 13 0 32 -11 43 -25z"/>
<path d="M5630 4119 c-18 -24 -205 -91 -237 -86 -30 5 -29 -6 3 -107 33 -101
41 -110 80 -96 l29 12 -31 13 c-39 16 -64 69 -43 90 8 7 61 30 117 51 83 30
107 35 122 27 16 -11 17 -9 10 20 -4 18 -14 46 -21 64 -14 30 -14 31 -29 12z"/>
<path d="M477 4083 c-6 -10 -57 -179 -57 -188 0 -4 7 -4 16 -1 19 7 229 -61
245 -80 6 -8 15 -14 19 -14 8 0 75 199 69 204 -2 1 -16 7 -31 13 -31 14 -43 6
-23 -14 18 -18 19 -63 2 -87 -11 -15 -18 -16 -60 -4 -39 10 -47 16 -47 36 0
12 11 33 25 46 l25 24 -24 6 c-13 3 -31 9 -39 12 -12 4 -14 -2 -11 -33 7 -58
-3 -65 -64 -46 -29 9 -52 21 -52 25 0 5 7 24 14 43 11 25 21 35 38 35 22 1 22
1 4 15 -22 16 -42 19 -49 8z"/>
<path d="M5720 3846 c0 -7 -18 -18 -42 -24 -131 -34 -184 -43 -210 -38 -24 5
-28 3 -24 -12 3 -9 13 -55 22 -102 10 -47 20 -88 23 -92 3 -4 22 -3 41 1 l35
8 -27 11 c-46 19 -65 82 -30 101 9 5 34 12 54 16 35 7 38 5 44 -20 4 -16 2
-36 -5 -47 -10 -16 -8 -18 22 -18 43 0 51 8 28 29 -25 21 -35 67 -17 74 7 3
34 8 59 12 l46 7 7 -36 c5 -28 2 -41 -11 -56 -10 -11 -16 -22 -13 -25 10 -10
58 15 58 30 0 31 -44 195 -52 195 -4 0 -8 -6 -8 -14z"/>
<path d="M395 3818 c-7 -21 -55 -261 -52 -263 1 -1 17 -5 36 -9 33 -6 33 -5
18 12 -17 19 -23 77 -9 85 15 9 237 -43 248 -58 17 -22 21 -19 29 23 3 20 9
47 12 59 4 20 2 21 -34 17 -32 -4 -226 35 -239 48 -10 11 15 64 35 74 19 10
20 12 6 18 -26 10 -45 7 -50 -6z"/>
<path d="M5635 3563 c-108 -27 -151 -127 -111 -258 11 -39 13 -40 58 -41 25 0
53 -4 62 -7 13 -5 16 1 15 36 0 23 -4 50 -8 60 -6 17 -8 17 -20 3 -16 -19 -72
-21 -89 -4 -27 27 -6 85 39 112 16 10 53 20 82 22 121 12 175 -77 101 -165
l-26 -31 41 0 c38 0 61 13 42 24 -5 3 -6 26 -3 51 7 65 -14 130 -55 165 -18
17 -41 30 -51 30 -9 0 -26 2 -37 4 -11 2 -29 2 -40 -1z"/>
<path d="M601 3483 c-19 -12 -41 -23 -50 -24 -9 0 -63 -15 -121 -33 -93 -29
-105 -35 -108 -57 -3 -22 8 -29 114 -79 65 -30 130 -65 145 -77 30 -26 34 -23
38 25 2 31 1 33 -18 23 -15 -9 -28 -7 -56 6 -35 17 -37 20 -32 57 7 50 17 59
71 60 l45 1 6 58 c4 32 6 59 4 61 -2 2 -19 -8 -38 -21z m-111 -146 c0 -34 -8
-38 -47 -19 l-35 17 28 12 c43 18 54 16 54 -10z"/>
<path d="M345 3178 c-30 -27 -42 -94 -31 -182 7 -50 9 -54 22 -41 20 19 253
22 272 3 9 -9 12 3 12 57 0 65 -1 67 -18 52 -12 -11 -36 -17 -65 -17 -26 0
-47 1 -48 3 0 1 -2 22 -5 47 -4 33 -13 52 -35 73 -36 33 -69 34 -104 5z m107
-81 c4 -6 8 -20 8 -29 0 -15 -9 -18 -60 -18 -53 0 -60 2 -60 19 0 44 88 66
112 28z"/>
<path d="M5528 3188 c-2 -7 -4 -56 -3 -108 l0 -95 33 -3 c35 -4 44 13 12 23
-16 5 -20 15 -20 50 0 40 2 44 29 50 16 3 40 3 55 -1 21 -5 26 -12 26 -36 0
-18 -8 -37 -17 -44 -16 -12 -12 -13 30 -14 l47 0 -20 20 c-21 21 -23 29 -14
54 5 12 20 16 60 16 l54 0 0 -41 c0 -28 -6 -46 -17 -55 -16 -12 -15 -13 15
-14 l32 0 0 105 c0 63 -4 105 -10 105 -5 0 -10 -4 -10 -10 0 -6 -48 -10 -124
-10 -73 0 -127 4 -131 10 -9 14 -22 13 -27 -2z"/>
<path d="M635 2115 c-29 -28 -31 -42 -9 -73 17 -25 71 -31 92 -10 21 21 15 75
-10 92 -31 22 -45 20 -73 -9z"/>
<path d="M5405 2115 c-14 -13 -25 -33 -25 -43 0 -47 88 -73 110 -33 16 30 12
59 -10 81 -26 26 -46 25 -75 -5z"/>
<path d="M1420 1257 c0 -19 -128 -171 -148 -175 -10 -3 -5 -13 19 -34 l33 -31
8 29 c5 16 33 56 63 89 30 33 55 64 55 69 0 5 7 3 15 -4 34 -29 4 -90 -45 -90
-19 0 -20 -2 -10 -15 25 -30 84 -17 105 25 12 24 12 31 -3 57 -23 40 -92 100
-92 80z"/>
<path d="M4770 1257 c0 -20 25 -94 65 -191 7 -16 5 -17 -15 -11 -14 4 -20 3
-17 -2 4 -6 -5 -21 -19 -34 l-26 -24 -36 41 c-62 70 -81 97 -75 107 7 12 -14
1 -38 -20 -15 -13 -14 -17 15 -47 56 -60 95 -111 96 -124 0 -21 13 -13 89 56
70 62 70 63 51 82 -26 26 -25 42 3 68 23 21 25 22 56 6 31 -16 34 -15 53 4
l20 20 -23 7 c-13 4 -37 13 -54 21 -39 17 -134 54 -140 54 -3 0 -5 -6 -5 -13z
m74 -60 c16 -12 16 -14 2 -26 -19 -16 -21 -14 -30 17 -8 25 2 28 28 9z"/>
<path d="M1553 1075 c-55 -38 -165 -95 -173 -90 -21 13 -9 -13 12 -27 20 -13
24 -13 44 11 21 25 22 25 49 7 24 -16 26 -22 21 -59 -5 -35 -3 -45 14 -60 24
-21 34 -22 27 -3 -3 7 6 59 20 116 26 107 23 131 -14 105z m-19 -67 c-9 -31
-11 -33 -29 -18 -14 11 -13 14 2 26 26 20 35 17 27 -8z"/>
<path d="M4519 1049 c-15 -13 -19 -23 -13 -27 21 -13 114 -145 108 -153 -12
-20 24 -7 46 16 17 18 19 25 9 25 -15 0 -37 25 -95 112 l-32 47 -23 -20z"/>
<path d="M1637 1023 c-11 -11 -8 -23 6 -23 7 0 22 -6 32 -14 17 -13 16 -17
-26 -84 -24 -39 -51 -72 -59 -72 -10 0 -5 -9 15 -27 22 -19 30 -22 34 -12 3
11 71 125 87 147 7 10 42 -11 50 -28 9 -20 9 -20 21 -1 11 18 5 24 -68 70 -87
56 -83 54 -92 44z"/>
<path d="M4430 985 c-9 -11 -7 -19 10 -37 31 -33 61 -88 48 -88 -6 0 -51 9
-100 21 -49 12 -92 19 -95 16 -3 -4 13 -38 36 -77 23 -40 44 -82 47 -95 4 -16
11 -21 24 -18 26 7 48 33 29 33 -13 1 -82 90 -75 98 2 2 33 -3 68 -12 103 -24
126 -28 131 -19 3 5 -16 47 -43 93 -27 46 -46 88 -44 92 9 14 -23 8 -36 -7z"/>
<path d="M1820 896 c0 -23 -80 -166 -93 -166 -13 0 12 -18 66 -49 45 -25 53
-26 61 -5 4 11 2 15 -8 11 -17 -7 -56 19 -56 37 0 25 34 58 53 51 9 -4 17 -13
17 -21 0 -8 4 -14 9 -14 12 0 24 34 13 38 -5 1 -17 9 -28 16 -16 12 -16 18 -6
40 14 31 25 33 51 7 19 -19 31 -18 31 4 0 10 -87 65 -104 65 -3 0 -6 -6 -6
-14z"/>
<path d="M1965 821 c3 -5 -6 -34 -20 -65 -14 -30 -25 -59 -25 -64 0 -5 -9 -21
-21 -36 l-20 -26 27 -10 c31 -12 28 -14 41 25 16 49 40 44 48 -9 5 -28 16 -53
31 -67 32 -30 38 -20 20 35 -21 63 -21 68 14 88 34 19 40 56 14 83 -32 31
-125 70 -109 46z m75 -76 c0 -39 -30 -65 -49 -42 -15 19 8 77 31 77 14 0 18
-8 18 -35z"/>
<path d="M4176 716 c5 -82 3 -115 -5 -120 -16 -10 -36 8 -58 52 -45 88 -86
152 -94 146 -5 -3 -9 -29 -9 -58 0 -29 -3 -74 -6 -100 l-7 -47 -75 73 c-84 80
-91 79 -72 -14 23 -108 31 -162 26 -173 -3 -8 5 -9 29 -1 25 8 30 13 20 21
-12 9 -40 114 -32 121 1 2 26 -19 56 -47 29 -27 56 -49 60 -49 4 0 12 39 17
87 l9 86 34 -66 c21 -40 41 -67 50 -67 9 0 34 11 56 23 37 21 40 25 37 63 -3
35 0 42 24 53 24 11 30 9 54 -14 24 -23 30 -25 54 -14 26 12 35 29 15 29 -6 0
-46 29 -89 65 -43 36 -83 65 -90 65 -8 0 -10 -29 -4 -114z m64 13 c0 -6 -25
-19 -36 -19 -2 0 -4 11 -4 25 0 23 2 24 20 13 11 -7 20 -16 20 -19z"/>
<path d="M2170 718 c-44 -12 -71 -48 -77 -102 -4 -35 -1 -47 22 -74 30 -36 90
-58 131 -48 15 4 40 21 56 38 37 40 40 113 6 145 -18 17 -96 56 -102 52 0 -1
-17 -5 -36 -11z m88 -38 c38 -36 26 -124 -22 -155 -22 -15 -27 -15 -55 -1 -36
19 -49 67 -31 120 19 57 68 73 108 36z"/>
<path d="M2393 644 c-7 -3 -15 -20 -19 -38 -5 -27 0 -42 27 -80 30 -42 32 -48
17 -62 -20 -20 -55 -11 -63 17 -8 23 -25 16 -25 -10 0 -41 99 -56 124 -19 24
34 19 70 -15 111 -17 21 -28 44 -25 52 8 22 43 18 60 -7 14 -19 16 -20 22 -4
4 10 2 22 -3 27 -12 12 -82 21 -100 13z"/>
<path d="M2642 568 c-11 -35 -23 -79 -27 -98 -4 -19 -14 -47 -21 -62 l-15 -28
38 1 c21 0 32 3 26 6 -16 6 -16 26 -2 72 7 20 14 43 16 51 2 8 13 -7 23 -35
45 -125 39 -123 97 -38 l38 58 3 -68 c3 -62 5 -69 28 -77 33 -13 47 -4 34 20
-5 10 -10 66 -10 124 0 58 -4 107 -9 110 -5 3 -32 -30 -60 -75 -28 -44 -55
-78 -59 -75 -5 3 -14 24 -22 48 -25 83 -43 128 -51 128 -4 0 -17 -28 -27 -62z"/>
<path d="M3573 615 c-38 -16 -73 -68 -73 -108 0 -89 94 -137 181 -91 77 39 76
159 -1 199 -36 18 -65 19 -107 0z m83 -38 c20 -18 28 -35 31 -73 7 -74 -31
-104 -90 -72 -36 19 -46 40 -47 94 0 43 3 53 23 62 34 17 54 14 83 -11z"/>
<path d="M3323 573 c-26 -5 -27 -11 -14 -46 6 -14 12 -58 14 -99 3 -44 10 -73
16 -72 6 1 20 2 31 3 17 1 18 5 10 27 -24 63 3 73 54 19 33 -35 77 -47 91 -25
3 6 0 10 -7 10 -8 0 -31 18 -53 40 -28 29 -35 43 -28 52 18 23 21 56 6 77 -14
21 -59 26 -120 14z m69 -25 c24 -19 31 -53 13 -68 -26 -21 -45 -4 -45 40 0 42
6 48 32 28z"/>
<path d="M3173 563 c-67 -3 -83 -7 -83 -20 0 -12 7 -14 34 -9 l34 7 7 -80 c4
-43 4 -89 0 -100 -6 -19 -2 -21 29 -21 19 0 38 5 41 10 3 6 -1 10 -9 10 -13 0
-16 15 -16 91 l0 92 35 -6 c30 -5 35 -3 35 14 0 10 -6 18 -12 17 -7 -1 -50 -4
-95 -5z"/>
<path d="M2945 498 c0 -35 -2 -83 -5 -108 l-5 -45 68 -3 c63 -3 67 -2 67 19 0
18 -3 19 -14 9 -8 -6 -25 -10 -38 -8 -20 3 -23 9 -23 43 0 39 1 40 33 37 23
-1 32 2 32 13 0 10 -10 15 -30 15 -28 0 -30 3 -30 35 0 31 3 35 25 35 14 0 25
-5 25 -11 0 -5 5 -7 10 -4 6 3 10 13 10 21 0 11 -15 14 -62 14 l-63 0 0 -62z"/>
</g>
</svg>
